<?xml version="1.0" encoding="UTF-8"?>
<!DOCTYPE svg PUBLIC "-//W3C//DTD SVG 1.1//EN" "http://www.w3.org/Graphics/SVG/1.1/DTD/svg11.dtd">
<svg xmlns="http://www.w3.org/2000/svg" version="1.1" width="1024px" height="1024px" style="shape-rendering:geometricPrecision; text-rendering:geometricPrecision; image-rendering:optimizeQuality; fill-rule:evenodd; clip-rule:evenodd" xmlns:xlink="http://www.w3.org/1999/xlink">
<g><path style="opacity:1" fill="#f9f9f9" d="M -0.5,-0.5 C 340.833,-0.5 682.167,-0.5 1023.5,-0.5C 1023.5,340.833 1023.5,682.167 1023.5,1023.5C 682.167,1023.5 340.833,1023.5 -0.5,1023.5C -0.5,682.167 -0.5,340.833 -0.5,-0.5 Z"/></g>
<g><path style="opacity:1" fill="#006f3e" d="M 904.5,150.5 C 904.238,151.978 904.571,153.311 905.5,154.5C 907.561,158.185 909.894,161.685 912.5,165C 911.683,166.49 910.85,167.99 910,169.5C 908.644,168.62 907.144,168.286 905.5,168.5C 905.5,170.5 905.5,172.5 905.5,174.5C 903.8,174.374 902.3,173.707 901,172.5C 900.5,172.667 900,172.833 899.5,173C 901.481,173.605 901.815,174.605 900.5,176C 896.778,176.238 893.111,176.738 889.5,177.5C 889.331,176.603 888.998,175.603 888.5,174.5C 887.369,176.074 887.202,177.741 888,179.5C 888.333,179.167 888.667,178.833 889,178.5C 889.333,180.833 889.667,183.167 890,185.5C 890.249,184.376 890.749,183.376 891.5,182.5C 891.833,182.667 892.167,182.833 892.5,183C 890.796,185.237 889.796,187.737 889.5,190.5C 888.022,190.238 886.689,190.571 885.5,191.5C 886.441,191.489 887.108,191.989 887.5,193C 885.874,195.087 884.374,197.253 883,199.5C 881.989,198.663 880.822,198.33 879.5,198.5C 879.223,201.448 879.556,204.281 880.5,207C 879.833,209 879.167,211 878.5,213C 880.107,216.019 881.773,215.852 883.5,212.5C 882.687,211.186 881.687,210.019 880.5,209C 881.333,206.919 881.333,204.752 880.5,202.5C 882.594,203.242 884.761,203.909 887,204.5C 888.436,204.441 889.769,204.108 891,203.5C 891.456,202.256 890.956,201.423 889.5,201C 891.473,200.505 893.473,200.338 895.5,200.5C 895.5,203.167 895.5,205.833 895.5,208.5C 892.282,208.349 891.949,207.516 894.5,206C 893.584,205.626 892.75,205.126 892,204.5C 892.365,209.108 891.031,210.108 888,207.5C 887.333,211.5 887.333,215.5 888,219.5C 887.988,216.349 888.988,213.682 891,211.5C 891.667,212.833 891.667,214.167 891,215.5C 890.667,215.167 890.333,214.833 890,214.5C 889.667,216.833 889.333,219.167 889,221.5C 888.667,221.167 888.333,220.833 888,220.5C 887.333,222.167 887.333,223.833 888,225.5C 888.889,224.112 889.389,224.278 889.5,226C 889.389,227.722 888.889,227.888 888,226.5C 887.667,227.833 887.333,229.167 887,230.5C 886.005,228.839 884.672,227.505 883,226.5C 878.179,227.651 875.513,230.651 875,235.5C 874.25,234.874 873.416,234.374 872.5,234C 873.337,232.989 873.67,231.822 873.5,230.5C 872.167,230.5 870.833,230.5 869.5,230.5C 869.505,233.86 868.671,236.86 867,239.5C 865.333,238.167 863.667,238.167 862,239.5C 861.517,238.552 861.351,237.552 861.5,236.5C 859.508,236.672 857.842,236.005 856.5,234.5C 855.482,235.193 854.482,235.859 853.5,236.5C 854.04,233.313 853.04,230.813 850.5,229C 850.95,227.715 851.617,226.548 852.5,225.5C 850.993,224.261 849.826,224.595 849,226.5C 848.464,224.433 848.964,222.599 850.5,221C 849.216,220.316 848.049,220.483 847,221.5C 846.308,220.975 845.808,220.308 845.5,219.5C 846.948,218.646 848.281,217.646 849.5,216.5C 850.086,216.709 850.586,217.043 851,217.5C 851.497,215.19 851.663,212.857 851.5,210.5C 852.552,210.649 853.552,210.483 854.5,210C 853.304,209.346 853.304,208.846 854.5,208.5C 855.167,209.167 855.833,209.833 856.5,210.5C 858.208,208.729 859.041,206.729 859,204.5C 856.928,207.915 855.761,207.915 855.5,204.5C 854.178,204.33 853.011,204.663 852,205.5C 851.544,204.256 852.044,203.423 853.5,203C 851.776,202.552 851.109,201.718 851.5,200.5C 848.78,202.111 845.78,202.944 842.5,203C 843.448,203.483 844.448,203.649 845.5,203.5C 845.725,207.056 844.892,207.39 843,204.5C 841.779,205.272 840.779,206.272 840,207.5C 837.904,206.285 838.071,205.451 840.5,205C 838.671,203.462 837.171,203.962 836,206.5C 835.027,204.608 834.36,202.608 834,200.5C 832.644,199.62 831.144,199.286 829.5,199.5C 829.321,201.606 828.321,203.272 826.5,204.5C 823.992,205.397 821.826,206.73 820,208.5C 819.5,208.167 819,207.833 818.5,207.5C 819.782,205.821 820.782,203.987 821.5,202C 820.906,201.536 820.239,201.369 819.5,201.5C 825.616,196.268 832.283,191.768 839.5,188C 840.989,186.532 842.323,185.032 843.5,183.5C 863.639,172.262 883.972,161.262 904.5,150.5 Z"/></g>
<g><path style="opacity:1" fill="#069c58" d="M 463.5,190.5 C 461.533,191.632 459.7,191.299 458,189.5C 457.667,190.5 457.333,191.5 457,192.5C 452.663,191.001 448.996,192.001 446,195.5C 442.255,194.703 438.421,194.203 434.5,194C 434.833,193.667 435.167,193.333 435.5,193C 432.786,191.206 429.786,190.04 426.5,189.5C 427.776,188.355 429.109,188.355 430.5,189.5C 431.386,188.675 431.719,187.675 431.5,186.5C 429.253,186.085 427.086,185.418 425,184.5C 424.167,184.833 423.333,185.167 422.5,185.5C 426.376,187.516 426.376,188.349 422.5,188C 424.454,190.307 424.454,192.307 422.5,194C 423.899,196.238 423.232,196.905 420.5,196C 420.833,195.667 421.167,195.333 421.5,195C 419.56,191.211 418.393,187.378 418,183.5C 415.765,185.202 413.265,186.202 410.5,186.5C 410.997,188.597 411.33,190.43 411.5,192C 410.5,192.333 409.5,192.667 408.5,193C 409.833,194.333 409.833,195.667 408.5,197C 409.672,197.353 410.838,197.187 412,196.5C 413.171,197.34 414.338,198.173 415.5,199C 414.5,199.333 413.5,199.667 412.5,200C 413.016,202.033 412.35,202.033 410.5,200C 410.833,199.667 411.167,199.333 411.5,199C 407.697,197.792 404.697,198.792 402.5,202C 402.905,202.945 403.572,203.612 404.5,204C 402.939,204.318 401.772,205.151 401,206.5C 400.986,204.402 401.153,202.569 401.5,201C 399.956,201.487 398.29,201.987 396.5,202.5C 396.65,198.839 395.15,197.839 392,199.5C 391.308,198.975 390.808,198.308 390.5,197.5C 392.413,196.949 394.413,196.782 396.5,197C 396.167,196.667 395.833,196.333 395.5,196C 397.994,194.088 397.827,192.254 395,190.5C 394.481,191.516 393.647,192.182 392.5,192.5C 390.865,191.954 389.199,191.62 387.5,191.5C 388.002,195.86 386.502,199.194 383,201.5C 380.372,200.212 378.205,200.879 376.5,203.5C 376.794,205.375 377.294,207.375 378,209.5C 377.667,208.833 377.333,208.167 377,207.5C 375.233,208.817 373.899,210.484 373,212.5C 372.5,212 372,211.5 371.5,211C 369.005,210.843 366.672,210.676 364.5,210.5C 362.027,208.758 362.027,206.925 364.5,205C 363.449,201.72 361.449,200.553 358.5,201.5C 357.5,201 356.5,200.5 355.5,200C 356.696,199.346 356.696,198.846 355.5,198.5C 353.259,199.032 351.759,200.365 351,202.5C 349.989,201.663 348.822,201.33 347.5,201.5C 379.409,179.238 414.076,173.738 451.5,185C 455.71,186.609 459.71,188.442 463.5,190.5 Z"/></g>
<g><path style="opacity:1" fill="#019657" d="M 463.5,190.5 C 479.331,198.494 491.831,210.161 501,225.5C 504.606,232.379 507.939,239.379 511,246.5C 519.079,269.573 527.246,292.573 535.5,315.5C 533.145,313.83 531.812,314.497 531.5,317.5C 531.529,319.029 532.196,320.196 533.5,321C 532.66,322.666 533.16,322.833 535,321.5C 536.814,322.851 536.481,323.851 534,324.5C 533.71,326.952 533.044,329.285 532,331.5C 530.989,332.337 529.822,332.67 528.5,332.5C 528.246,335.014 527.413,337.348 526,339.5C 524.817,338.269 523.651,338.269 522.5,339.5C 523.881,345.214 521.547,349.381 515.5,352C 516.056,352.383 516.389,352.883 516.5,353.5C 464.22,325.692 411.887,297.859 359.5,270C 348.053,263.942 336.387,258.442 324.5,253.5C 324.5,253.167 324.5,252.833 324.5,252.5C 325.675,252.719 326.675,252.386 327.5,251.5C 328.781,248.553 330.781,246.219 333.5,244.5C 335.277,241.28 336.777,237.947 338,234.5C 339.897,232.984 342.064,232.317 344.5,232.5C 344.34,234.199 344.506,235.866 345,237.5C 345.998,232.544 346.831,227.544 347.5,222.5C 347.426,224.312 347.759,226.312 348.5,228.5C 349.852,227.482 350.852,226.149 351.5,224.5C 352.914,225.624 354.414,226.624 356,227.5C 357.307,226.228 358.807,225.228 360.5,224.5C 359.391,222.786 360.058,222.119 362.5,222.5C 362.66,220.801 362.494,219.134 362,217.5C 361.111,218.888 360.611,218.722 360.5,217C 361.615,215.765 361.615,214.598 360.5,213.5C 361.311,212.784 361.978,211.95 362.5,211C 361.852,209.56 361.519,208.06 361.5,206.5C 358.795,206.38 358.128,207.38 359.5,209.5C 357.257,210.474 354.924,210.808 352.5,210.5C 352.643,208.738 352.309,207.071 351.5,205.5C 352.5,204.833 353.5,204.167 354.5,203.5C 352.657,203.245 350.657,203.078 348.5,203C 347.944,202.617 347.611,202.117 347.5,201.5C 348.822,201.33 349.989,201.663 351,202.5C 351.759,200.365 353.259,199.032 355.5,198.5C 356.696,198.846 356.696,199.346 355.5,200C 356.5,200.5 357.5,201 358.5,201.5C 361.449,200.553 363.449,201.72 364.5,205C 362.027,206.925 362.027,208.758 364.5,210.5C 366.672,210.676 369.005,210.843 371.5,211C 372,211.5 372.5,212 373,212.5C 373.899,210.484 375.233,208.817 377,207.5C 377.333,208.167 377.667,208.833 378,209.5C 377.294,207.375 376.794,205.375 376.5,203.5C 378.205,200.879 380.372,200.212 383,201.5C 386.502,199.194 388.002,195.86 387.5,191.5C 389.199,191.62 390.865,191.954 392.5,192.5C 393.647,192.182 394.481,191.516 395,190.5C 397.827,192.254 397.994,194.088 395.5,196C 395.833,196.333 396.167,196.667 396.5,197C 394.413,196.782 392.413,196.949 390.5,197.5C 390.808,198.308 391.308,198.975 392,199.5C 395.15,197.839 396.65,198.839 396.5,202.5C 398.29,201.987 399.956,201.487 401.5,201C 401.153,202.569 400.986,204.402 401,206.5C 401.772,205.151 402.939,204.318 404.5,204C 403.572,203.612 402.905,202.945 402.5,202C 404.697,198.792 407.697,197.792 411.5,199C 411.167,199.333 410.833,199.667 410.5,200C 412.35,202.033 413.016,202.033 412.5,200C 413.5,199.667 414.5,199.333 415.5,199C 414.338,198.173 413.171,197.34 412,196.5C 410.838,197.187 409.672,197.353 408.5,197C 409.833,195.667 409.833,194.333 408.5,193C 409.5,192.667 410.5,192.333 411.5,192C 411.33,190.43 410.997,188.597 410.5,186.5C 413.265,186.202 415.765,185.202 418,183.5C 418.393,187.378 419.56,191.211 421.5,195C 421.167,195.333 420.833,195.667 420.5,196C 423.232,196.905 423.899,196.238 422.5,194C 424.454,192.307 424.454,190.307 422.5,188C 426.376,188.349 426.376,187.516 422.5,185.5C 423.333,185.167 424.167,184.833 425,184.5C 427.086,185.418 429.253,186.085 431.5,186.5C 431.719,187.675 431.386,188.675 430.5,189.5C 429.109,188.355 427.776,188.355 426.5,189.5C 429.786,190.04 432.786,191.206 435.5,193C 435.167,193.333 434.833,193.667 434.5,194C 438.421,194.203 442.255,194.703 446,195.5C 448.996,192.001 452.663,191.001 457,192.5C 457.333,191.5 457.667,190.5 458,189.5C 459.7,191.299 461.533,191.632 463.5,190.5 Z"/></g>
<g><path style="opacity:1" fill="#006a3e" d="M 853.5,236.5 C 851.824,237.183 851.157,238.517 851.5,240.5C 847.767,241.528 844.101,242.861 840.5,244.5C 835.884,243.049 835.217,244.382 838.5,248.5C 839.675,247.145 840.675,247.312 841.5,249C 841,249.5 840.5,250 840,250.5C 836.322,250.079 832.822,248.746 829.5,246.5C 829.714,244.856 829.38,243.356 828.5,242C 829.717,240.352 830.55,238.519 831,236.5C 831.651,238.235 831.485,239.902 830.5,241.5C 831.242,242.287 832.075,242.953 833,243.5C 833.743,241.559 833.576,239.726 832.5,238C 836.5,237.333 836.5,236.667 832.5,236C 833.849,234.365 833.682,232.865 832,231.5C 830.291,233.175 828.624,234.842 827,236.5C 824.239,233.933 825.072,232.266 829.5,231.5C 829.719,230.325 829.386,229.325 828.5,228.5C 826.281,231.574 823.281,232.907 819.5,232.5C 819.5,233.833 819.5,235.167 819.5,236.5C 820.833,236.5 822.167,236.5 823.5,236.5C 823.5,237.833 823.5,239.167 823.5,240.5C 822.167,240.5 820.833,240.5 819.5,240.5C 819.5,239.5 819.5,238.5 819.5,237.5C 816.32,237.824 815.153,236.49 816,233.5C 818.129,234.863 818.629,234.529 817.5,232.5C 820.028,231.483 820.028,230.316 817.5,229C 817.737,226.712 817.737,224.212 817.5,221.5C 814.932,220.55 812.432,220.55 810,221.5C 809.506,219.866 809.34,218.199 809.5,216.5C 811.827,216.753 813.827,216.086 815.5,214.5C 814.471,214.704 813.471,214.204 812.5,213C 814.915,213.055 817.248,213.388 819.5,214C 817.043,212.488 817.043,211.154 819.5,210C 817.433,208.343 816.1,206.676 815.5,205C 816.056,204.617 816.389,204.117 816.5,203.5C 817.29,202.599 818.29,201.932 819.5,201.5C 820.239,201.369 820.906,201.536 821.5,202C 820.782,203.987 819.782,205.821 818.5,207.5C 819,207.833 819.5,208.167 820,208.5C 821.826,206.73 823.992,205.397 826.5,204.5C 828.321,203.272 829.321,201.606 829.5,199.5C 831.144,199.286 832.644,199.62 834,200.5C 834.36,202.608 835.027,204.608 836,206.5C 837.171,203.962 838.671,203.462 840.5,205C 838.071,205.451 837.904,206.285 840,207.5C 840.779,206.272 841.779,205.272 843,204.5C 844.892,207.39 845.725,207.056 845.5,203.5C 844.448,203.649 843.448,203.483 842.5,203C 845.78,202.944 848.78,202.111 851.5,200.5C 851.109,201.718 851.776,202.552 853.5,203C 852.044,203.423 851.544,204.256 852,205.5C 853.011,204.663 854.178,204.33 855.5,204.5C 855.761,207.915 856.928,207.915 859,204.5C 859.041,206.729 858.208,208.729 856.5,210.5C 855.833,209.833 855.167,209.167 854.5,208.5C 853.304,208.846 853.304,209.346 854.5,210C 853.552,210.483 852.552,210.649 851.5,210.5C 851.663,212.857 851.497,215.19 851,217.5C 850.586,217.043 850.086,216.709 849.5,216.5C 848.281,217.646 846.948,218.646 845.5,219.5C 845.808,220.308 846.308,220.975 847,221.5C 848.049,220.483 849.216,220.316 850.5,221C 848.964,222.599 848.464,224.433 849,226.5C 849.826,224.595 850.993,224.261 852.5,225.5C 851.617,226.548 850.95,227.715 850.5,229C 853.04,230.813 854.04,233.313 853.5,236.5 Z"/></g>
<g><path style="opacity:1" fill="#039b57" d="M 347.5,201.5 C 347.611,202.117 347.944,202.617 348.5,203C 350.657,203.078 352.657,203.245 354.5,203.5C 353.5,204.167 352.5,204.833 351.5,205.5C 352.309,207.071 352.643,208.738 352.5,210.5C 354.924,210.808 357.257,210.474 359.5,209.5C 358.128,207.38 358.795,206.38 361.5,206.5C 361.519,208.06 361.852,209.56 362.5,211C 361.978,211.95 361.311,212.784 360.5,213.5C 361.615,214.598 361.615,215.765 360.5,217C 360.611,218.722 361.111,218.888 362,217.5C 362.494,219.134 362.66,220.801 362.5,222.5C 360.058,222.119 359.391,222.786 360.5,224.5C 358.807,225.228 357.307,226.228 356,227.5C 354.414,226.624 352.914,225.624 351.5,224.5C 350.852,226.149 349.852,227.482 348.5,228.5C 347.759,226.312 347.426,224.312 347.5,222.5C 346.831,227.544 345.998,232.544 345,237.5C 344.506,235.866 344.34,234.199 344.5,232.5C 342.064,232.317 339.897,232.984 338,234.5C 336.777,237.947 335.277,241.28 333.5,244.5C 330.781,246.219 328.781,248.553 327.5,251.5C 326.675,252.386 325.675,252.719 324.5,252.5C 323.508,252.672 322.842,252.338 322.5,251.5C 322.5,241.167 322.5,230.833 322.5,220.5C 320.265,220.795 318.265,220.461 316.5,219.5C 319.187,219.664 321.854,219.497 324.5,219C 331.478,212.187 339.144,206.354 347.5,201.5 Z"/></g>
<g><path style="opacity:1" fill="#006e3e" d="M 816.5,203.5 C 816.389,204.117 816.056,204.617 815.5,205C 816.1,206.676 817.433,208.343 819.5,210C 817.043,211.154 817.043,212.488 819.5,214C 817.248,213.388 814.915,213.055 812.5,213C 813.471,214.204 814.471,214.704 815.5,214.5C 813.827,216.086 811.827,216.753 809.5,216.5C 809.34,218.199 809.506,219.866 810,221.5C 812.432,220.55 814.932,220.55 817.5,221.5C 817.737,224.212 817.737,226.712 817.5,229C 820.028,230.316 820.028,231.483 817.5,232.5C 818.629,234.529 818.129,234.863 816,233.5C 815.153,236.49 816.32,237.824 819.5,237.5C 819.5,238.5 819.5,239.5 819.5,240.5C 820.833,240.5 822.167,240.5 823.5,240.5C 823.5,239.167 823.5,237.833 823.5,236.5C 822.167,236.5 820.833,236.5 819.5,236.5C 819.5,235.167 819.5,233.833 819.5,232.5C 823.281,232.907 826.281,231.574 828.5,228.5C 829.386,229.325 829.719,230.325 829.5,231.5C 825.072,232.266 824.239,233.933 827,236.5C 828.624,234.842 830.291,233.175 832,231.5C 833.682,232.865 833.849,234.365 832.5,236C 836.5,236.667 836.5,237.333 832.5,238C 833.576,239.726 833.743,241.559 833,243.5C 832.075,242.953 831.242,242.287 830.5,241.5C 831.485,239.902 831.651,238.235 831,236.5C 830.55,238.519 829.717,240.352 828.5,242C 829.38,243.356 829.714,244.856 829.5,246.5C 832.822,248.746 836.322,250.079 840,250.5C 840.5,250 841,249.5 841.5,249C 840.675,247.312 839.675,247.145 838.5,248.5C 835.217,244.382 835.884,243.049 840.5,244.5C 844.101,242.861 847.767,241.528 851.5,240.5C 851.157,238.517 851.824,237.183 853.5,236.5C 854.718,237.161 856.051,237.828 857.5,238.5C 855.016,239.894 855.016,241.394 857.5,243C 856.19,245.802 854.523,248.302 852.5,250.5C 852.709,251.086 853.043,251.586 853.5,252C 850.864,253.149 848.864,254.983 847.5,257.5C 846.264,256.754 844.93,256.421 843.5,256.5C 844.205,259.726 845.205,262.893 846.5,266C 846.167,266.333 845.833,266.667 845.5,267C 846.5,267.333 847.5,267.667 848.5,268C 847.736,270.069 847.236,272.236 847,274.5C 845.333,274.833 843.667,275.167 842,275.5C 841.316,274.216 841.483,273.049 842.5,272C 840.893,272.019 839.226,272.185 837.5,272.5C 837.739,270.533 837.406,268.699 836.5,267C 839.5,266 841.5,264 842.5,261C 840.5,260.333 838.5,260.333 836.5,261C 836.833,261.333 837.167,261.667 837.5,262C 835.963,263.11 835.297,264.61 835.5,266.5C 833.5,266.5 831.5,266.5 829.5,266.5C 829.5,267.833 829.5,269.167 829.5,270.5C 828.167,270.5 826.833,270.5 825.5,270.5C 825.077,274.551 825.744,278.384 827.5,282C 827.167,282.5 826.833,283 826.5,283.5C 825.205,282.902 823.872,282.402 822.5,282C 823.554,280.612 823.72,279.112 823,277.5C 821.989,278.337 820.822,278.67 819.5,278.5C 819.5,279.833 819.5,281.167 819.5,282.5C 818.178,282.33 817.011,282.663 816,283.5C 816.054,280.809 814.887,278.976 812.5,278C 813.522,275.684 815.022,275.184 817,276.5C 817.333,275.167 817.667,273.833 818,272.5C 818.639,275.228 819.806,275.728 821.5,274C 818.833,273.333 818.833,272.667 821.5,272C 819.75,270.681 817.75,270.181 815.5,270.5C 815.36,268.876 816.027,267.71 817.5,267C 816.5,266.667 815.5,266.333 814.5,266C 815.337,264.989 815.67,263.822 815.5,262.5C 817.124,262.36 818.29,263.027 819,264.5C 819.49,263.207 819.657,261.873 819.5,260.5C 816.445,261.036 813.445,261.869 810.5,263C 810.996,264.996 811.996,266.663 813.5,268C 811.702,267.994 810.035,267.661 808.5,267C 809.337,268.011 809.67,269.178 809.5,270.5C 806.018,270.262 804.018,268.429 803.5,265C 803.675,263.342 804.342,262.009 805.5,261C 803.955,259.312 802.955,257.312 802.5,255C 803.448,254.517 804.448,254.351 805.5,254.5C 803.737,252.994 802.237,249.994 801,245.5C 800.667,246.5 800.333,247.5 800,248.5C 799.505,246.527 799.338,244.527 799.5,242.5C 798.448,242.649 797.448,242.483 796.5,242C 795.223,238.2 795.223,234.366 796.5,230.5C 795.3,231.531 793.966,232.365 792.5,233C 793.833,234.333 793.833,235.667 792.5,237C 794.569,237.324 794.902,238.158 793.5,239.5C 792.277,240.614 790.944,240.781 789.5,240C 790.973,239.29 791.64,238.124 791.5,236.5C 789.08,236.708 786.747,236.374 784.5,235.5C 783.548,237.045 783.215,238.712 783.5,240.5C 780.956,240.896 778.789,240.229 777,238.5C 775.301,239.406 773.467,239.739 771.5,239.5C 771.48,241.143 772.147,242.476 773.5,243.5C 772.687,244.814 771.687,245.981 770.5,247C 771.535,248.507 771.368,250.007 770,251.5C 769.333,249.5 768.667,247.5 768,245.5C 766.612,249.155 764.612,249.489 762,246.5C 760.829,247.34 759.662,248.173 758.5,249C 761.768,253.788 760.768,255.622 755.5,254.5C 752.5,255 749.5,255.5 746.5,256C 748.558,257.808 748.892,259.975 747.5,262.5C 744.911,263.127 742.411,263.127 740,262.5C 736.575,263.591 734.075,265.758 732.5,269C 729.833,270.333 727.167,271.667 724.5,273C 725.337,274.011 725.67,275.178 725.5,276.5C 724.167,276.5 722.833,276.5 721.5,276.5C 721.378,280.147 719.712,282.981 716.5,285C 717.112,286.303 717.446,287.47 717.5,288.5C 718.853,287.315 720.02,285.981 721,284.5C 721.49,285.793 721.657,287.127 721.5,288.5C 722.873,288.343 724.207,288.51 725.5,289C 723.655,290.128 721.655,290.628 719.5,290.5C 719.836,295.392 718.503,296.225 715.5,293C 716.923,291.588 716.756,290.421 715,289.5C 714.682,291.061 713.849,292.228 712.5,293C 713.167,293.333 713.833,293.667 714.5,294C 713.829,294.986 713.829,296.153 714.5,297.5C 713.282,296.269 711.949,295.102 710.5,294C 710.833,293.667 711.167,293.333 711.5,293C 710.5,292.667 709.5,292.333 708.5,292C 710.256,291.798 711.922,291.298 713.5,290.5C 712.833,290.167 712.167,289.833 711.5,289.5C 711.977,288.069 712.643,286.736 713.5,285.5C 713.296,286.529 713.796,287.529 715,288.5C 715.667,286.833 715.667,285.167 715,283.5C 714.667,283.833 714.333,284.167 714,284.5C 713.692,283.692 713.192,283.025 712.5,282.5C 711.702,284.078 711.202,285.744 711,287.5C 710.751,286.376 710.251,285.376 709.5,284.5C 708.481,285.687 707.314,286.687 706,287.5C 702.118,286.83 698.785,288.163 696,291.5C 695.667,292.833 695.333,294.167 695,295.5C 694.692,294.692 694.192,294.025 693.5,293.5C 688.225,296.32 688.225,297.32 693.5,296.5C 693.815,298.226 693.981,299.893 694,301.5C 693.085,300.672 692.419,299.672 692,298.5C 690.899,300.394 689.566,301.061 688,300.5C 687.505,302.473 687.338,304.473 687.5,306.5C 686.448,306.351 685.448,306.517 684.5,307C 684.833,307.333 685.167,307.667 685.5,308C 682.553,308.112 681.22,309.612 681.5,312.5C 680.167,312.5 678.833,312.5 677.5,312.5C 678.167,313.833 678.833,315.167 679.5,316.5C 678.448,316.351 677.448,316.517 676.5,317C 677.841,320.262 677.508,320.762 675.5,318.5C 674.914,318.709 674.414,319.043 674,319.5C 673.333,321.5 672.667,323.5 672,325.5C 671.517,324.552 671.351,323.552 671.5,322.5C 670.448,322.351 669.448,322.517 668.5,323C 666.174,326.488 662.841,328.321 658.5,328.5C 654.836,327.964 651.336,326.964 648,325.5C 648.487,327.044 648.987,328.71 649.5,330.5C 646.68,332.096 644.013,333.262 641.5,334C 641.833,334.5 642.167,335 642.5,335.5C 644.003,334.948 645.669,334.948 647.5,335.5C 647.238,334.022 647.571,332.689 648.5,331.5C 649.228,333.193 650.228,334.693 651.5,336C 650.382,337.074 649.382,338.24 648.5,339.5C 645.972,338.502 645.972,337.669 648.5,337C 646.421,336.192 644.421,336.359 642.5,337.5C 644.027,339.33 643.527,340.33 641,340.5C 638.542,339.639 636.376,338.306 634.5,336.5C 633.201,338.307 633.368,339.973 635,341.5C 635.333,340.833 635.667,340.167 636,339.5C 636.903,340.701 638.069,341.535 639.5,342C 637.527,342.495 635.527,342.662 633.5,342.5C 633.649,343.552 633.483,344.552 633,345.5C 632.667,345.167 632.333,344.833 632,344.5C 629.175,346.188 626.009,347.021 622.5,347C 623.448,347.483 624.448,347.649 625.5,347.5C 625.36,349.124 626.027,350.29 627.5,351C 625.51,357.093 624.676,363.259 625,369.5C 623.383,368.464 623.216,367.297 624.5,366C 623.833,365.667 623.167,365.333 622.5,365C 623.117,362.612 623.45,360.279 623.5,358C 622.711,357.454 621.711,356.787 620.5,356C 623.498,353.192 622.831,351.859 618.5,352C 619.772,350.754 620.105,349.587 619.5,348.5C 617.362,350.033 616.695,351.866 617.5,354C 615.606,355.101 614.939,356.434 615.5,358C 613.744,358.202 612.078,358.702 610.5,359.5C 611.326,360.451 611.492,361.451 611,362.5C 609.095,363.158 607.595,364.325 606.5,366C 608.869,366.314 611.036,367.148 613,368.5C 613.945,368.095 614.612,367.428 615,366.5C 617.133,368.138 619.633,368.971 622.5,369C 623.727,370.587 623.394,371.921 621.5,373C 622.667,373.5 623.5,374.333 624,375.5C 628.552,373.554 630.052,374.888 628.5,379.5C 629.5,382.167 630.5,382.167 631.5,379.5C 633.078,378.702 634.744,378.202 636.5,378C 634.56,376.793 632.727,376.626 631,377.5C 630.333,376.5 630.333,375.5 631,374.5C 633.333,374.833 635.667,375.167 638,375.5C 640.133,370.965 638.8,369.632 634,371.5C 633.911,374.849 632.744,375.349 630.5,373C 632.394,371.899 633.061,370.566 632.5,369C 633.784,368.316 634.951,368.483 636,369.5C 636.333,368.5 636.667,367.5 637,366.5C 639.063,368.561 640.73,370.894 642,373.5C 643.586,372.624 645.086,371.624 646.5,370.5C 647.76,372.353 647.76,374.186 646.5,376C 648.256,376.202 649.922,376.702 651.5,377.5C 650.478,378.354 649.645,379.354 649,380.5C 646.782,379.076 645.282,377.076 644.5,374.5C 643.41,375.391 643.41,376.391 644.5,377.5C 643.675,378.386 642.675,378.719 641.5,378.5C 641.5,380.5 641.5,382.5 641.5,384.5C 643.492,384.672 645.158,384.005 646.5,382.5C 647.251,383.376 647.751,384.376 648,385.5C 648.718,384.549 649.551,384.383 650.5,385C 649.773,386.399 649.273,387.899 649,389.5C 648.072,386.965 646.238,385.965 643.5,386.5C 643.5,387.833 643.5,389.167 643.5,390.5C 645.288,390.215 646.955,390.548 648.5,391.5C 649.918,397.043 650.918,397.376 651.5,392.5C 653.103,392.312 654.437,392.812 655.5,394C 654.169,395.659 652.835,397.326 651.5,399C 652.833,400.667 654.167,402.333 655.5,404C 655.333,404.5 655.167,405 655,405.5C 653.333,404.167 651.667,404.167 650,405.5C 648.716,404.428 648.383,403.095 649,401.5C 647.667,400.833 646.333,400.167 645,399.5C 645.195,401.126 645.195,402.793 645,404.5C 642.896,402.262 640.562,401.262 638,401.5C 637.437,402.725 637.77,403.725 639,404.5C 639.893,403.289 640.726,403.289 641.5,404.5C 640.891,407.837 639.724,408.17 638,405.5C 637.626,406.416 637.126,407.25 636.5,408C 637.624,408.249 638.624,408.749 639.5,409.5C 636.91,409.835 634.577,411.335 632.5,414C 633.451,414.718 633.617,415.551 633,416.5C 631.43,415.386 630.097,414.053 629,412.5C 629.033,416.812 629.366,421.145 630,425.5C 632.484,422.741 633.65,423.074 633.5,426.5C 632.167,426.5 630.833,426.5 629.5,426.5C 629.587,429.598 629.087,429.932 628,427.5C 627.828,423.129 627.328,418.796 626.5,414.5C 624.277,417.294 624.277,419.961 626.5,422.5C 626.9,424.826 626.4,427.159 625,429.5C 624.58,425.809 624.08,422.142 623.5,418.5C 620.402,418.413 620.068,418.913 622.5,420C 620.256,422.349 619.089,421.849 619,418.5C 618.257,420.441 618.424,422.274 619.5,424C 618.234,424.309 617.067,424.809 616,425.5C 614,424.167 612,422.833 610,421.5C 609.837,423.676 609.004,425.509 607.5,427C 609.037,428.11 609.703,429.61 609.5,431.5C 611.857,431.663 614.19,431.497 616.5,431C 617.126,430.25 617.626,429.416 618,428.5C 619.626,428.854 621.459,428.854 623.5,428.5C 622.768,431.137 622.768,433.637 623.5,436C 620.825,437.059 618.159,438.059 615.5,439C 615.665,440.117 615.998,441.284 616.5,442.5C 615.757,443.182 615.091,443.849 614.5,444.5C 595.608,422.1 576.108,400.1 556,378.5C 555.251,377.365 555.417,376.365 556.5,375.5C 565.483,369.832 574.15,363.832 582.5,357.5C 660.5,306.167 738.5,254.833 816.5,203.5 Z"/></g>
<g><path style="opacity:1" fill="#044d2d" d="M 316.5,219.5 C 318.265,220.461 320.265,220.795 322.5,220.5C 322.5,230.833 322.5,241.167 322.5,251.5C 257.654,238.297 192.988,224.13 128.5,209C 191.142,212.582 253.808,216.082 316.5,219.5 Z"/></g>
<g><path style="opacity:1" fill="#004628" d="M 395.5,218.5 C 406.152,215.91 413.652,219.577 418,229.5C 419.76,246.407 412.26,253.907 395.5,252C 386.814,247.459 383.314,240.293 385,230.5C 386.963,225.044 390.463,221.044 395.5,218.5 Z"/></g>
<g><path style="opacity:1" fill="#006b3e" d="M 661.5,503.5 C 658.898,502.068 656.731,500.068 655,497.5C 641.471,479.735 627.971,462.068 614.5,444.5C 615.091,443.849 615.757,443.182 616.5,442.5C 615.998,441.284 615.665,440.117 615.5,439C 618.159,438.059 620.825,437.059 623.5,436C 622.768,433.637 622.768,431.137 623.5,428.5C 621.459,428.854 619.626,428.854 618,428.5C 617.626,429.416 617.126,430.25 616.5,431C 614.19,431.497 611.857,431.663 609.5,431.5C 609.703,429.61 609.037,428.11 607.5,427C 609.004,425.509 609.837,423.676 610,421.5C 612,422.833 614,424.167 616,425.5C 617.067,424.809 618.234,424.309 619.5,424C 618.424,422.274 618.257,420.441 619,418.5C 619.089,421.849 620.256,422.349 622.5,420C 620.068,418.913 620.402,418.413 623.5,418.5C 624.08,422.142 624.58,425.809 625,429.5C 626.4,427.159 626.9,424.826 626.5,422.5C 624.277,419.961 624.277,417.294 626.5,414.5C 627.328,418.796 627.828,423.129 628,427.5C 629.087,429.932 629.587,429.598 629.5,426.5C 630.833,426.5 632.167,426.5 633.5,426.5C 633.65,423.074 632.484,422.741 630,425.5C 629.366,421.145 629.033,416.812 629,412.5C 630.097,414.053 631.43,415.386 633,416.5C 633.617,415.551 633.451,414.718 632.5,414C 634.577,411.335 636.91,409.835 639.5,409.5C 638.624,408.749 637.624,408.249 636.5,408C 637.126,407.25 637.626,406.416 638,405.5C 639.724,408.17 640.891,407.837 641.5,404.5C 640.726,403.289 639.893,403.289 639,404.5C 637.77,403.725 637.437,402.725 638,401.5C 640.562,401.262 642.896,402.262 645,404.5C 645.195,402.793 645.195,401.126 645,399.5C 646.333,400.167 647.667,400.833 649,401.5C 648.383,403.095 648.716,404.428 650,405.5C 651.667,404.167 653.333,404.167 655,405.5C 655.167,405 655.333,404.5 655.5,404C 654.167,402.333 652.833,400.667 651.5,399C 652.835,397.326 654.169,395.659 655.5,394C 654.437,392.812 653.103,392.312 651.5,392.5C 650.918,397.376 649.918,397.043 648.5,391.5C 646.955,390.548 645.288,390.215 643.5,390.5C 643.5,389.167 643.5,387.833 643.5,386.5C 646.238,385.965 648.072,386.965 649,389.5C 649.273,387.899 649.773,386.399 650.5,385C 649.551,384.383 648.718,384.549 648,385.5C 647.751,384.376 647.251,383.376 646.5,382.5C 645.158,384.005 643.492,384.672 641.5,384.5C 641.5,382.5 641.5,380.5 641.5,378.5C 642.675,378.719 643.675,378.386 644.5,377.5C 643.41,376.391 643.41,375.391 644.5,374.5C 645.282,377.076 646.782,379.076 649,380.5C 649.645,379.354 650.478,378.354 651.5,377.5C 649.922,376.702 648.256,376.202 646.5,376C 647.76,374.186 647.76,372.353 646.5,370.5C 645.086,371.624 643.586,372.624 642,373.5C 640.73,370.894 639.063,368.561 637,366.5C 636.667,367.5 636.333,368.5 636,369.5C 634.951,368.483 633.784,368.316 632.5,369C 633.061,370.566 632.394,371.899 630.5,373C 632.744,375.349 633.911,374.849 634,371.5C 638.8,369.632 640.133,370.965 638,375.5C 635.667,375.167 633.333,374.833 631,374.5C 630.333,375.5 630.333,376.5 631,377.5C 632.727,376.626 634.56,376.793 636.5,378C 634.744,378.202 633.078,378.702 631.5,379.5C 630.5,382.167 629.5,382.167 628.5,379.5C 630.052,374.888 628.552,373.554 624,375.5C 623.5,374.333 622.667,373.5 621.5,373C 623.394,371.921 623.727,370.587 622.5,369C 619.633,368.971 617.133,368.138 615,366.5C 614.612,367.428 613.945,368.095 613,368.5C 611.036,367.148 608.869,366.314 606.5,366C 607.595,364.325 609.095,363.158 611,362.5C 611.492,361.451 611.326,360.451 610.5,359.5C 612.078,358.702 613.744,358.202 615.5,358C 614.939,356.434 615.606,355.101 617.5,354C 616.695,351.866 617.362,350.033 619.5,348.5C 620.105,349.587 619.772,350.754 618.5,352C 622.831,351.859 623.498,353.192 620.5,356C 621.711,356.787 622.711,357.454 623.5,358C 623.45,360.279 623.117,362.612 622.5,365C 623.167,365.333 623.833,365.667 624.5,366C 623.216,367.297 623.383,368.464 625,369.5C 624.676,363.259 625.51,357.093 627.5,351C 626.027,350.29 625.36,349.124 625.5,347.5C 624.448,347.649 623.448,347.483 622.5,347C 626.009,347.021 629.175,346.188 632,344.5C 632.333,344.833 632.667,345.167 633,345.5C 633.483,344.552 633.649,343.552 633.5,342.5C 635.527,342.662 637.527,342.495 639.5,342C 638.069,341.535 636.903,340.701 636,339.5C 635.667,340.167 635.333,340.833 635,341.5C 633.368,339.973 633.201,338.307 634.5,336.5C 636.376,338.306 638.542,339.639 641,340.5C 643.527,340.33 644.027,339.33 642.5,337.5C 644.421,336.359 646.421,336.192 648.5,337C 645.972,337.669 645.972,338.502 648.5,339.5C 649.382,338.24 650.382,337.074 651.5,336C 650.228,334.693 649.228,333.193 648.5,331.5C 647.571,332.689 647.238,334.022 647.5,335.5C 645.669,334.948 644.003,334.948 642.5,335.5C 642.167,335 641.833,334.5 641.5,334C 644.013,333.262 646.68,332.096 649.5,330.5C 648.987,328.71 648.487,327.044 648,325.5C 651.336,326.964 654.836,327.964 658.5,328.5C 662.841,328.321 666.174,326.488 668.5,323C 669.448,322.517 670.448,322.351 671.5,322.5C 671.351,323.552 671.517,324.552 672,325.5C 672.667,323.5 673.333,321.5 674,319.5C 674.414,319.043 674.914,318.709 675.5,318.5C 677.508,320.762 677.841,320.262 676.5,317C 677.448,316.517 678.448,316.351 679.5,316.5C 678.833,315.167 678.167,313.833 677.5,312.5C 678.833,312.5 680.167,312.5 681.5,312.5C 681.22,309.612 682.553,308.112 685.5,308C 685.167,307.667 684.833,307.333 684.5,307C 685.448,306.517 686.448,306.351 687.5,306.5C 687.338,304.473 687.505,302.473 688,300.5C 689.566,301.061 690.899,300.394 692,298.5C 692.419,299.672 693.085,300.672 694,301.5C 693.981,299.893 693.815,298.226 693.5,296.5C 688.225,297.32 688.225,296.32 693.5,293.5C 694.192,294.025 694.692,294.692 695,295.5C 695.333,294.167 695.667,292.833 696,291.5C 698.785,288.163 702.118,286.83 706,287.5C 707.314,286.687 708.481,285.687 709.5,284.5C 710.251,285.376 710.751,286.376 711,287.5C 711.202,285.744 711.702,284.078 712.5,282.5C 713.192,283.025 713.692,283.692 714,284.5C 714.333,284.167 714.667,283.833 715,283.5C 715.667,285.167 715.667,286.833 715,288.5C 713.796,287.529 713.296,286.529 713.5,285.5C 712.643,286.736 711.977,288.069 711.5,289.5C 712.167,289.833 712.833,290.167 713.5,290.5C 711.922,291.298 710.256,291.798 708.5,292C 709.5,292.333 710.5,292.667 711.5,293C 711.167,293.333 710.833,293.667 710.5,294C 711.949,295.102 713.282,296.269 714.5,297.5C 713.829,296.153 713.829,294.986 714.5,294C 713.833,293.667 713.167,293.333 712.5,293C 713.849,292.228 714.682,291.061 715,289.5C 716.756,290.421 716.923,291.588 715.5,293C 718.503,296.225 719.836,295.392 719.5,290.5C 721.655,290.628 723.655,290.128 725.5,289C 724.207,288.51 722.873,288.343 721.5,288.5C 721.657,287.127 721.49,285.793 721,284.5C 720.02,285.981 718.853,287.315 717.5,288.5C 717.446,287.47 717.112,286.303 716.5,285C 719.712,282.981 721.378,280.147 721.5,276.5C 722.833,276.5 724.167,276.5 725.5,276.5C 725.67,275.178 725.337,274.011 724.5,273C 727.167,271.667 729.833,270.333 732.5,269C 734.075,265.758 736.575,263.591 740,262.5C 742.411,263.127 744.911,263.127 747.5,262.5C 748.892,259.975 748.558,257.808 746.5,256C 749.5,255.5 752.5,255 755.5,254.5C 760.768,255.622 761.768,253.788 758.5,249C 759.662,248.173 760.829,247.34 762,246.5C 764.612,249.489 766.612,249.155 768,245.5C 768.667,247.5 769.333,249.5 770,251.5C 771.368,250.007 771.535,248.507 770.5,247C 771.687,245.981 772.687,244.814 773.5,243.5C 772.147,242.476 771.48,241.143 771.5,239.5C 773.467,239.739 775.301,239.406 777,238.5C 778.789,240.229 780.956,240.896 783.5,240.5C 783.215,238.712 783.548,237.045 784.5,235.5C 786.747,236.374 789.08,236.708 791.5,236.5C 791.64,238.124 790.973,239.29 789.5,240C 790.944,240.781 792.277,240.614 793.5,239.5C 794.902,238.158 794.569,237.324 792.5,237C 793.833,235.667 793.833,234.333 792.5,233C 793.966,232.365 795.3,231.531 796.5,230.5C 795.223,234.366 795.223,238.2 796.5,242C 797.448,242.483 798.448,242.649 799.5,242.5C 799.338,244.527 799.505,246.527 800,248.5C 800.333,247.5 800.667,246.5 801,245.5C 802.237,249.994 803.737,252.994 805.5,254.5C 804.448,254.351 803.448,254.517 802.5,255C 802.955,257.312 803.955,259.312 805.5,261C 804.342,262.009 803.675,263.342 803.5,265C 804.018,268.429 806.018,270.262 809.5,270.5C 809.67,269.178 809.337,268.011 808.5,267C 810.035,267.661 811.702,267.994 813.5,268C 811.996,266.663 810.996,264.996 810.5,263C 813.445,261.869 816.445,261.036 819.5,260.5C 819.657,261.873 819.49,263.207 819,264.5C 818.29,263.027 817.124,262.36 815.5,262.5C 815.67,263.822 815.337,264.989 814.5,266C 815.5,266.333 816.5,266.667 817.5,267C 816.027,267.71 815.36,268.876 815.5,270.5C 817.75,270.181 819.75,270.681 821.5,272C 818.833,272.667 818.833,273.333 821.5,274C 819.806,275.728 818.639,275.228 818,272.5C 817.667,273.833 817.333,275.167 817,276.5C 815.022,275.184 813.522,275.684 812.5,278C 814.887,278.976 816.054,280.809 816,283.5C 817.011,282.663 818.178,282.33 819.5,282.5C 819.5,281.167 819.5,279.833 819.5,278.5C 820.822,278.67 821.989,278.337 823,277.5C 823.72,279.112 823.554,280.612 822.5,282C 823.872,282.402 825.205,282.902 826.5,283.5C 826.833,283 827.167,282.5 827.5,282C 825.744,278.384 825.077,274.551 825.5,270.5C 826.833,270.5 828.167,270.5 829.5,270.5C 829.5,269.167 829.5,267.833 829.5,266.5C 831.5,266.5 833.5,266.5 835.5,266.5C 835.297,264.61 835.963,263.11 837.5,262C 837.167,261.667 836.833,261.333 836.5,261C 838.5,260.333 840.5,260.333 842.5,261C 841.5,264 839.5,266 836.5,267C 837.406,268.699 837.739,270.533 837.5,272.5C 839.226,272.185 840.893,272.019 842.5,272C 841.483,273.049 841.316,274.216 842,275.5C 843.667,275.167 845.333,274.833 847,274.5C 847.236,272.236 847.736,270.069 848.5,268C 847.5,267.667 846.5,267.333 845.5,267C 845.833,266.667 846.167,266.333 846.5,266C 845.205,262.893 844.205,259.726 843.5,256.5C 844.93,256.421 846.264,256.754 847.5,257.5C 848.864,254.983 850.864,253.149 853.5,252C 853.043,251.586 852.709,251.086 852.5,250.5C 854.523,248.302 856.19,245.802 857.5,243C 855.016,241.394 855.016,239.894 857.5,238.5C 856.051,237.828 854.718,237.161 853.5,236.5C 854.482,235.859 855.482,235.193 856.5,234.5C 857.842,236.005 859.508,236.672 861.5,236.5C 861.351,237.552 861.517,238.552 862,239.5C 863.667,238.167 865.333,238.167 867,239.5C 868.671,236.86 869.505,233.86 869.5,230.5C 870.833,230.5 872.167,230.5 873.5,230.5C 873.67,231.822 873.337,232.989 872.5,234C 873.416,234.374 874.25,234.874 875,235.5C 875.513,230.651 878.179,227.651 883,226.5C 884.672,227.505 886.005,228.839 887,230.5C 887.333,229.167 887.667,227.833 888,226.5C 888.889,227.888 889.389,227.722 889.5,226C 889.389,224.278 888.889,224.112 888,225.5C 887.333,223.833 887.333,222.167 888,220.5C 888.333,220.833 888.667,221.167 889,221.5C 889.333,219.167 889.667,216.833 890,214.5C 890.333,214.833 890.667,215.167 891,215.5C 891.667,214.167 891.667,212.833 891,211.5C 888.988,213.682 887.988,216.349 888,219.5C 887.333,215.5 887.333,211.5 888,207.5C 891.031,210.108 892.365,209.108 892,204.5C 892.75,205.126 893.584,205.626 894.5,206C 891.949,207.516 892.282,208.349 895.5,208.5C 895.5,205.833 895.5,203.167 895.5,200.5C 893.473,200.338 891.473,200.505 889.5,201C 890.956,201.423 891.456,202.256 891,203.5C 889.769,204.108 888.436,204.441 887,204.5C 884.761,203.909 882.594,203.242 880.5,202.5C 881.333,204.752 881.333,206.919 880.5,209C 881.687,210.019 882.687,211.186 883.5,212.5C 881.773,215.852 880.107,216.019 878.5,213C 879.167,211 879.833,209 880.5,207C 879.556,204.281 879.223,201.448 879.5,198.5C 880.822,198.33 881.989,198.663 883,199.5C 884.374,197.253 885.874,195.087 887.5,193C 887.108,191.989 886.441,191.489 885.5,191.5C 886.689,190.571 888.022,190.238 889.5,190.5C 889.796,187.737 890.796,185.237 892.5,183C 892.167,182.833 891.833,182.667 891.5,182.5C 890.749,183.376 890.249,184.376 890,185.5C 889.667,183.167 889.333,180.833 889,178.5C 888.667,178.833 888.333,179.167 888,179.5C 887.202,177.741 887.369,176.074 888.5,174.5C 888.998,175.603 889.331,176.603 889.5,177.5C 893.111,176.738 896.778,176.238 900.5,176C 901.815,174.605 901.481,173.605 899.5,173C 900,172.833 900.5,172.667 901,172.5C 902.3,173.707 903.8,174.374 905.5,174.5C 905.5,172.5 905.5,170.5 905.5,168.5C 907.144,168.286 908.644,168.62 910,169.5C 910.85,167.99 911.683,166.49 912.5,165C 909.894,161.685 907.561,158.185 905.5,154.5C 904.571,153.311 904.238,151.978 904.5,150.5C 911.806,146.512 919.14,142.512 926.5,138.5C 926.833,139.333 927.167,140.167 927.5,141C 915.934,196.292 895.1,247.792 865,295.5C 812.496,379.837 744.663,449.171 661.5,503.5 Z"/></g>
<g><path style="opacity:1" fill="#ecedec" d="M 324.5,253.5 C 336.387,258.442 348.053,263.942 359.5,270C 411.887,297.859 464.22,325.692 516.5,353.5C 519.436,355.308 522.436,357.141 525.5,359C 490.793,389.603 477.46,427.769 485.5,473.5C 489.15,493.959 496.984,512.626 509,529.5C 560.181,589.503 610.014,650.503 658.5,712.5C 656.806,713.686 655.139,713.519 653.5,712C 622.171,694.504 590.504,677.838 558.5,662C 536.522,650.681 515.188,638.348 494.5,625C 451.7,595.876 418.533,558.376 395,512.5C 381.544,483.677 374.211,453.343 373,421.5C 372.742,399.463 371.742,377.463 370,355.5C 366.491,326.631 356.491,300.298 340,276.5C 334.883,269.048 329.383,261.882 323.5,255C 324.056,254.617 324.389,254.117 324.5,253.5 Z"/></g>
<g><path style="opacity:1" fill="#006e3e" d="M 714.5,297.5 C 715.222,297.082 715.722,296.416 716,295.5C 717.938,296.86 719.604,296.527 721,294.5C 721.49,295.793 721.657,297.127 721.5,298.5C 725.527,298.719 726.194,297.552 723.5,295C 726.334,292.816 727.668,293.316 727.5,296.5C 729.981,296.677 731.814,295.677 733,293.5C 733.483,294.448 733.649,295.448 733.5,296.5C 735.527,296.662 737.527,296.495 739.5,296C 739.167,295.667 738.833,295.333 738.5,295C 740.334,292.976 742.001,293.142 743.5,295.5C 742.397,295.998 741.397,296.331 740.5,296.5C 741.246,297.736 741.579,299.07 741.5,300.5C 746.45,301.138 746.117,301.971 740.5,303C 741.337,304.011 741.67,305.178 741.5,306.5C 742.822,306.33 743.989,306.663 745,307.5C 745.494,305.866 745.66,304.199 745.5,302.5C 747.766,302.859 749.599,302.192 751,300.5C 753.56,302.534 756.393,304.2 759.5,305.5C 759.807,304.113 759.807,302.446 759.5,300.5C 758.325,300.719 757.325,300.386 756.5,299.5C 756.846,298.304 757.346,298.304 758,299.5C 758.667,295.5 759.333,295.5 760,299.5C 761.011,298.663 762.178,298.33 763.5,298.5C 763.5,297.167 763.5,295.833 763.5,294.5C 765.5,294.5 767.5,294.5 769.5,294.5C 769.721,299.062 768.221,299.728 765,296.5C 764.911,298.113 765.745,299.28 767.5,300C 767,300.5 766.5,301 766,301.5C 764.644,300.62 763.144,300.286 761.5,300.5C 761.5,301.833 761.5,303.167 761.5,304.5C 763.103,304.312 764.437,304.812 765.5,306C 764.151,306.772 763.318,307.939 763,309.5C 762,308.167 761,308.167 760,309.5C 758.513,308.747 758.346,307.914 759.5,307C 753.821,305.822 753.155,307.489 757.5,312C 757.333,312.5 757.167,313 757,313.5C 756.439,312.978 755.772,312.645 755,312.5C 753.832,313.509 752.665,314.509 751.5,315.5C 750.109,314.355 748.776,314.355 747.5,315.5C 744.098,318.437 741.765,322.104 740.5,326.5C 738.391,325.35 736.391,324.016 734.5,322.5C 733.315,323.853 731.981,325.02 730.5,326C 731.522,328.316 733.022,328.816 735,327.5C 735.456,328.744 734.956,329.577 733.5,330C 735.795,331.676 736.962,333.843 737,336.5C 735.534,334.675 733.701,334.175 731.5,335C 730.167,335.667 730.167,336.333 731.5,337C 730.451,337.492 729.451,337.326 728.5,336.5C 727.536,339.083 726.202,339.583 724.5,338C 726.815,335.524 726.482,333.191 723.5,331C 725.108,330.342 726.275,330.842 727,332.5C 727.167,331.667 727.333,330.833 727.5,330C 726.255,327.251 724.255,325.418 721.5,324.5C 721.785,326.288 721.452,327.955 720.5,329.5C 718.844,327.978 717.677,328.311 717,330.5C 712.369,326.085 711.535,326.752 714.5,332.5C 716.082,334.585 718.082,336.085 720.5,337C 719.075,338.714 719.408,340.047 721.5,341C 719.183,342.32 717.183,343.986 715.5,346C 713.19,346.497 710.857,346.663 708.5,346.5C 708.433,348.401 708.767,350.234 709.5,352C 708.465,353.274 707.298,354.44 706,355.5C 703.952,353.494 704.452,352.494 707.5,352.5C 707.5,350.5 707.5,348.5 707.5,346.5C 706.178,346.33 705.011,346.663 704,347.5C 703.801,345.598 702.967,344.098 701.5,343C 708.199,344.465 710.865,341.631 709.5,334.5C 708.167,334.5 706.833,334.5 705.5,334.5C 705.769,336.429 705.269,338.095 704,339.5C 702.372,338.181 702.539,336.848 704.5,335.5C 703.635,334.417 702.635,334.251 701.5,335C 701.833,335.333 702.167,335.667 702.5,336C 700.899,336.273 699.399,336.773 698,337.5C 696.776,334.527 694.776,333.86 692,335.5C 691.517,334.552 691.351,333.552 691.5,332.5C 695.465,331.631 699.465,330.798 703.5,330C 703.167,329.667 702.833,329.333 702.5,329C 703.428,328.612 704.095,327.945 704.5,327C 703.709,325.899 703.709,325.066 704.5,324.5C 705.298,326.078 705.798,327.744 706,329.5C 707,328.167 708,328.167 709,329.5C 709.72,327.888 709.554,326.388 708.5,325C 710.101,324.727 711.601,324.227 713,323.5C 713.483,324.448 713.649,325.448 713.5,326.5C 717.161,326.65 718.161,325.15 716.5,322C 717.995,320.839 719.495,319.673 721,318.5C 722.057,319.627 723.223,320.127 724.5,320C 723.773,318.601 723.273,317.101 723,315.5C 721.989,314.663 720.822,314.33 719.5,314.5C 719.649,315.552 719.483,316.552 719,317.5C 717.308,317.324 715.808,316.824 714.5,316C 716.701,315.223 716.701,314.056 714.5,312.5C 713.072,314.159 711.238,316.159 709,318.5C 708.5,317.333 707.667,316.5 706.5,316C 708.883,314.2 710.55,311.867 711.5,309C 709.044,306.841 709.71,306.008 713.5,306.5C 713.5,305.167 713.5,303.833 713.5,302.5C 714.833,302.5 716.167,302.5 717.5,302.5C 717.279,300.336 716.279,298.67 714.5,297.5 Z"/></g>
<g><path style="opacity:1" fill="#039b58" d="M 843.5,183.5 C 842.323,185.032 840.989,186.532 839.5,188C 832.283,191.768 825.616,196.268 819.5,201.5C 818.29,201.932 817.29,202.599 816.5,203.5C 738.5,254.833 660.5,306.167 582.5,357.5C 581.698,356.048 581.198,354.382 581,352.5C 580.333,353.833 579.333,354.833 578,355.5C 573.844,354.38 570.178,352.38 567,349.5C 565,352.167 563,352.167 561,349.5C 559.731,350.905 559.231,352.571 559.5,354.5C 554.493,354.01 553.826,354.843 557.5,357C 556.5,357.333 555.5,357.667 554.5,358C 557.671,359.037 560.171,358.204 562,355.5C 563.621,355.725 564.788,356.558 565.5,358C 564.852,359.44 564.519,360.94 564.5,362.5C 563.022,362.238 561.689,362.571 560.5,363.5C 559.089,367.662 556.423,368.328 552.5,365.5C 551.224,363.139 551.558,360.972 553.5,359C 551.097,358.37 549.263,359.203 548,361.5C 546.605,360.185 545.605,360.519 545,362.5C 542.721,361.41 540.554,361.744 538.5,363.5C 536.571,365.06 535.238,367.06 534.5,369.5C 535.035,371.271 535.869,371.604 537,370.5C 537.743,372.441 537.576,374.274 536.5,376C 540.148,378.066 542.315,376.899 543,372.5C 543.149,375.279 543.983,375.779 545.5,374C 544.24,372.186 544.24,370.353 545.5,368.5C 546.883,371.076 547.717,370.742 548,367.5C 548.667,366.167 549.333,366.167 550,367.5C 550.639,375.424 550.306,382.757 549,389.5C 547.111,388.903 545.278,388.569 543.5,388.5C 543.167,388.833 542.833,389.167 542.5,389.5C 543.5,390.167 544.5,390.833 545.5,391.5C 545.333,391.833 545.167,392.167 545,392.5C 540.516,397.93 535.516,402.93 530,407.5C 528.806,405.377 528.14,403.043 528,400.5C 526.716,401.572 526.383,402.905 527,404.5C 526.439,405.022 525.772,405.355 525,405.5C 522.273,404.937 519.607,404.27 517,403.5C 515.5,404.333 514.333,405.5 513.5,407C 514.641,407.741 514.641,408.575 513.5,409.5C 510.863,412.373 508.697,412.039 507,408.5C 506.076,412.296 505.742,415.962 506,419.5C 504.98,420.891 504.147,422.391 503.5,424C 501.567,424.783 500.067,424.283 499,422.5C 498.517,423.448 498.351,424.448 498.5,425.5C 499.552,425.351 500.552,425.517 501.5,426C 500.833,427.667 500.167,429.333 499.5,431C 500.167,431.667 500.833,432.333 501.5,433C 498.515,435.453 497.848,438.453 499.5,442C 498.448,443.119 497.281,443.619 496,443.5C 496.661,441.965 496.994,440.298 497,438.5C 495.823,440.176 494.323,441.509 492.5,442.5C 493.242,443.287 494.075,443.953 495,444.5C 495.498,447.482 495.665,450.482 495.5,453.5C 494.178,453.33 493.011,453.663 492,454.5C 491.235,457.196 490.068,459.696 488.5,462C 489.908,464.292 489.741,466.459 488,468.5C 487.667,467.5 487.333,466.5 487,465.5C 486.231,468.099 486.398,470.599 487.5,473C 486.906,473.464 486.239,473.631 485.5,473.5C 477.46,427.769 490.793,389.603 525.5,359C 522.436,357.141 519.436,355.308 516.5,353.5C 516.389,352.883 516.056,352.383 515.5,352C 521.547,349.381 523.881,345.214 522.5,339.5C 523.651,338.269 524.817,338.269 526,339.5C 527.413,337.348 528.246,335.014 528.5,332.5C 529.822,332.67 530.989,332.337 532,331.5C 533.044,329.285 533.71,326.952 534,324.5C 536.481,323.851 536.814,322.851 535,321.5C 533.16,322.833 532.66,322.666 533.5,321C 532.196,320.196 531.529,319.029 531.5,317.5C 531.812,314.497 533.145,313.83 535.5,315.5C 539.451,324.076 543.451,332.743 547.5,341.5C 548.365,342.583 549.365,342.749 550.5,342C 574.175,327.827 598.175,314.161 622.5,301C 695.903,261.299 769.57,222.132 843.5,183.5 Z"/></g>
<g><path style="opacity:1" fill="#019657" d="M 582.5,357.5 C 574.15,363.832 565.483,369.832 556.5,375.5C 555.417,376.365 555.251,377.365 556,378.5C 576.108,400.1 595.608,422.1 614.5,444.5C 627.971,462.068 641.471,479.735 655,497.5C 656.731,500.068 658.898,502.068 661.5,503.5C 722.541,617.257 776.875,734.257 824.5,854.5C 795.555,842.504 769.222,826.504 745.5,806.5C 745.185,804.774 745.019,803.107 745,801.5C 747.016,803.684 749.183,805.684 751.5,807.5C 751.499,804.766 751.666,801.766 752,798.5C 752.333,799.5 752.667,800.5 753,801.5C 754.049,799.893 755.549,799.227 757.5,799.5C 756.805,796.433 755.805,793.433 754.5,790.5C 754.709,789.914 755.043,789.414 755.5,789C 753.398,788.717 751.731,789.55 750.5,791.5C 749.692,791.192 749.025,790.692 748.5,790C 749.672,789.581 750.672,788.915 751.5,788C 750.342,786.991 749.675,785.658 749.5,784C 751.56,778.21 750.56,777.377 746.5,781.5C 745.385,779.511 745.718,777.678 747.5,776C 746.453,774.422 746.453,772.922 747.5,771.5C 748.429,772.689 748.762,774.022 748.5,775.5C 751.471,776.067 754.305,777.067 757,778.5C 757.167,778 757.333,777.5 757.5,777C 756.309,775.187 754.976,774.354 753.5,774.5C 755.945,772.636 756.112,770.636 754,768.5C 753.586,768.957 753.086,769.291 752.5,769.5C 751.014,765.619 751.348,761.952 753.5,758.5C 753.167,758.167 752.833,757.833 752.5,757.5C 750.391,758.65 748.391,759.984 746.5,761.5C 746.167,761 745.833,760.5 745.5,760C 746.707,758.7 747.374,757.2 747.5,755.5C 746.304,756.883 744.47,757.55 742,757.5C 740.652,754.433 738.652,752.766 736,752.5C 735.383,753.449 735.549,754.282 736.5,755C 735.833,755.333 735.167,755.667 734.5,756C 735.337,757.011 735.67,758.178 735.5,759.5C 733.897,759.312 732.563,759.812 731.5,761C 735.154,760.925 737.82,762.425 739.5,765.5C 739.167,766.167 738.833,766.833 738.5,767.5C 737.377,765.711 736.044,765.378 734.5,766.5C 735.441,766.489 736.108,766.989 736.5,768C 736.138,769.225 735.638,770.391 735,771.5C 734.5,770.333 733.667,769.5 732.5,769C 733.337,767.989 733.67,766.822 733.5,765.5C 729.636,765.408 725.97,764.908 722.5,764C 723.257,765.512 724.257,766.846 725.5,768C 723.179,769.713 722.179,768.88 722.5,765.5C 720.092,766.061 717.759,766.561 715.5,767C 716.308,766.692 716.975,766.192 717.5,765.5C 717.062,764.494 716.396,764.494 715.5,765.5C 714.738,764.372 714.071,763.205 713.5,762C 714.833,761.667 716.167,761.333 717.5,761C 715.376,759.878 713.543,758.378 712,756.5C 711.333,757.833 710.667,757.833 710,756.5C 709.517,757.448 709.351,758.448 709.5,759.5C 707.801,759.34 706.134,759.506 704.5,760C 705.555,762.781 706.221,765.948 706.5,769.5C 689.778,751.111 673.778,732.111 658.5,712.5C 610.014,650.503 560.181,589.503 509,529.5C 496.984,512.626 489.15,493.959 485.5,473.5C 486.239,473.631 486.906,473.464 487.5,473C 486.398,470.599 486.231,468.099 487,465.5C 487.333,466.5 487.667,467.5 488,468.5C 489.741,466.459 489.908,464.292 488.5,462C 490.068,459.696 491.235,457.196 492,454.5C 493.011,453.663 494.178,453.33 495.5,453.5C 495.665,450.482 495.498,447.482 495,444.5C 494.075,443.953 493.242,443.287 492.5,442.5C 494.323,441.509 495.823,440.176 497,438.5C 496.994,440.298 496.661,441.965 496,443.5C 497.281,443.619 498.448,443.119 499.5,442C 497.848,438.453 498.515,435.453 501.5,433C 500.833,432.333 500.167,431.667 499.5,431C 500.167,429.333 500.833,427.667 501.5,426C 500.552,425.517 499.552,425.351 498.5,425.5C 498.351,424.448 498.517,423.448 499,422.5C 500.067,424.283 501.567,424.783 503.5,424C 504.147,422.391 504.98,420.891 506,419.5C 505.742,415.962 506.076,412.296 507,408.5C 508.697,412.039 510.863,412.373 513.5,409.5C 514.641,408.575 514.641,407.741 513.5,407C 514.333,405.5 515.5,404.333 517,403.5C 519.607,404.27 522.273,404.937 525,405.5C 525.772,405.355 526.439,405.022 527,404.5C 526.383,402.905 526.716,401.572 528,400.5C 528.14,403.043 528.806,405.377 530,407.5C 535.516,402.93 540.516,397.93 545,392.5C 545.167,392.167 545.333,391.833 545.5,391.5C 544.5,390.833 543.5,390.167 542.5,389.5C 542.833,389.167 543.167,388.833 543.5,388.5C 545.278,388.569 547.111,388.903 549,389.5C 550.306,382.757 550.639,375.424 550,367.5C 549.333,366.167 548.667,366.167 548,367.5C 547.717,370.742 546.883,371.076 545.5,368.5C 544.24,370.353 544.24,372.186 545.5,374C 543.983,375.779 543.149,375.279 543,372.5C 542.315,376.899 540.148,378.066 536.5,376C 537.576,374.274 537.743,372.441 537,370.5C 535.869,371.604 535.035,371.271 534.5,369.5C 535.238,367.06 536.571,365.06 538.5,363.5C 540.554,361.744 542.721,361.41 545,362.5C 545.605,360.519 546.605,360.185 548,361.5C 549.263,359.203 551.097,358.37 553.5,359C 551.558,360.972 551.224,363.139 552.5,365.5C 556.423,368.328 559.089,367.662 560.5,363.5C 561.689,362.571 563.022,362.238 564.5,362.5C 564.519,360.94 564.852,359.44 565.5,358C 564.788,356.558 563.621,355.725 562,355.5C 560.171,358.204 557.671,359.037 554.5,358C 555.5,357.667 556.5,357.333 557.5,357C 553.826,354.843 554.493,354.01 559.5,354.5C 559.231,352.571 559.731,350.905 561,349.5C 563,352.167 565,352.167 567,349.5C 570.178,352.38 573.844,354.38 578,355.5C 579.333,354.833 580.333,353.833 581,352.5C 581.198,354.382 581.698,356.048 582.5,357.5 Z"/></g>
<g><path style="opacity:1" fill="#029b57" d="M 745.5,806.5 C 731.513,795.179 718.513,782.846 706.5,769.5C 706.221,765.948 705.555,762.781 704.5,760C 706.134,759.506 707.801,759.34 709.5,759.5C 709.351,758.448 709.517,757.448 710,756.5C 710.667,757.833 711.333,757.833 712,756.5C 713.543,758.378 715.376,759.878 717.5,761C 716.167,761.333 714.833,761.667 713.5,762C 714.071,763.205 714.738,764.372 715.5,765.5C 716.396,764.494 717.062,764.494 717.5,765.5C 716.975,766.192 716.308,766.692 715.5,767C 717.759,766.561 720.092,766.061 722.5,765.5C 722.179,768.88 723.179,769.713 725.5,768C 724.257,766.846 723.257,765.512 722.5,764C 725.97,764.908 729.636,765.408 733.5,765.5C 733.67,766.822 733.337,767.989 732.5,769C 733.667,769.5 734.5,770.333 735,771.5C 735.638,770.391 736.138,769.225 736.5,768C 736.108,766.989 735.441,766.489 734.5,766.5C 736.044,765.378 737.377,765.711 738.5,767.5C 738.833,766.833 739.167,766.167 739.5,765.5C 737.82,762.425 735.154,760.925 731.5,761C 732.563,759.812 733.897,759.312 735.5,759.5C 735.67,758.178 735.337,757.011 734.5,756C 735.167,755.667 735.833,755.333 736.5,755C 735.549,754.282 735.383,753.449 736,752.5C 738.652,752.766 740.652,754.433 742,757.5C 744.47,757.55 746.304,756.883 747.5,755.5C 747.374,757.2 746.707,758.7 745.5,760C 745.833,760.5 746.167,761 746.5,761.5C 748.391,759.984 750.391,758.65 752.5,757.5C 752.833,757.833 753.167,758.167 753.5,758.5C 751.348,761.952 751.014,765.619 752.5,769.5C 753.086,769.291 753.586,768.957 754,768.5C 756.112,770.636 755.945,772.636 753.5,774.5C 754.976,774.354 756.309,775.187 757.5,777C 757.333,777.5 757.167,778 757,778.5C 754.305,777.067 751.471,776.067 748.5,775.5C 748.762,774.022 748.429,772.689 747.5,771.5C 746.453,772.922 746.453,774.422 747.5,776C 745.718,777.678 745.385,779.511 746.5,781.5C 750.56,777.377 751.56,778.21 749.5,784C 749.675,785.658 750.342,786.991 751.5,788C 750.672,788.915 749.672,789.581 748.5,790C 749.025,790.692 749.692,791.192 750.5,791.5C 751.731,789.55 753.398,788.717 755.5,789C 755.043,789.414 754.709,789.914 754.5,790.5C 755.805,793.433 756.805,796.433 757.5,799.5C 755.549,799.227 754.049,799.893 753,801.5C 752.667,800.5 752.333,799.5 752,798.5C 751.666,801.766 751.499,804.766 751.5,807.5C 749.183,805.684 747.016,803.684 745,801.5C 745.019,803.107 745.185,804.774 745.5,806.5 Z"/></g>
</svg>
